<svg version="1.2" baseProfile="tiny" id="EdgeSVG_wSYCJ" x="0px" y="0px" width="121.103px" height="91.737px" viewBox="0 0 121.103 91.737" xmlns:xlink="http://www.w3.org/1999/xlink" xmlns="http://www.w3.org/2000/svg">
  <path fill="#918F8F" d="M34.816,91.736l-0.035-14.403c-0.003-0.946-0.004-1.615,0.013-2.093c-5.065-4.398-9.04-9.982-11.53-16.214&#xD;&#xA;&#x9;&#x9;c-0.379-0.922-0.903-2.517-1.199-3.444l-5.832-0.05l-3.846,2.949H0V28.806h12.415l3.831,3.025l4.988,0.012&#xD;&#xA;&#x9;&#x9;c0.988-3.533,2.465-6.967,4.395-10.219C33.289,8.392,47.149,0.487,62.7,0.487c4.97,0.005,9.784,0.84,14.355,2.482h28.685L109.065,0&#xD;&#xA;&#x9;&#x9;h12.037v28.863h-12.026l-3.314-2.849h-4.163c2.298,5.302,3.462,10.941,3.462,16.789c0,2.703-0.261,5.422-0.775,8.081&#xD;&#xA;&#x9;&#x9;c-1.194,6.585-3.998,12.891-8.106,18.223c-1.611,2.092-4.865,5.295-5.89,6.29l0.079,16.34H34.816z"/>
</svg>