<svg version="1.2" baseProfile="tiny" viewBox="0 0 225.000 99.612" xmlns:xlink="http://www.w3.org/1999/xlink" xmlns="http://www.w3.org/2000/svg">
<path style="fill:#ffffff;" d="M209.044,35.519c-0.943,0-1.707,0.764-1.707,1.708v1.638h-34.872v-1.638    c0-0.944-0.764-1.708-1.708-1.708c-0.943,0-1.707,0.764-1.707,1.708v1.638h-34.872v-1.638c0-0.944-0.764-1.708-1.708-1.708    c-0.943,0-1.707,0.764-1.707,1.708v1.638H95.892v-1.638c0-0.944-0.764-1.708-1.707-1.708c-0.944,0-1.708,0.764-1.708,1.708v1.638    H57.604v-1.638c0-0.944-0.764-1.708-1.708-1.708c-0.943,0-1.708,0.764-1.708,1.708v1.638h-34.87v-1.638    c0-0.944-0.764-1.708-1.707-1.708c-0.944,0-1.708,0.764-1.708,1.708v24.888c0,0.943,0.764,1.707,1.708,1.707    c0.943,0,1.707-0.764,1.707-1.707v-1.638h34.87v1.638c0,0.943,0.765,1.707,1.708,1.707c0.944,0,1.708-0.764,1.708-1.707v-1.638    h34.873v1.638c0,0.943,0.764,1.707,1.708,1.707c0.943,0,1.707-0.764,1.707-1.707v-1.638h34.871v1.638    c0,0.943,0.764,1.707,1.707,1.707c0.944,0,1.708-0.764,1.708-1.707v-1.638h34.872v1.638c0,0.943,0.764,1.707,1.707,1.707    c0.944,0,1.708-0.764,1.708-1.707v-1.638h34.872v1.638c0,0.943,0.764,1.707,1.707,1.707c0.944,0,1.708-0.764,1.708-1.707V37.227    C210.752,36.282,209.988,35.519,209.044,35.519z M19.317,59.282V40.058h34.87v19.225H19.317z M57.604,59.282V40.058h34.873v19.225    H57.604z M95.892,59.282V40.058h34.871v19.225H95.892z M134.178,59.282V40.058h34.872v19.225H134.178z M172.465,59.282V40.058    h34.872v19.225H172.465z"/>
</svg>