<svg version="1.2" baseProfile="tiny" id="EdgeSVG_EyDZi" x="0px" y="0px" width="100.16px" height="213.796px" viewBox="0 0 100.16 213.796" xmlns:xlink="http://www.w3.org/1999/xlink" xmlns="http://www.w3.org/2000/svg">
  <linearGradient id="SVGID_1_" gradientUnits="userSpaceOnUse" x1="0" y1="106.8979" x2="100.1597" y2="106.8979">
    <stop offset="0" style="stop-color:#231F20;stop-opacity:0.5"/>
    <stop offset="0.5092" style="stop-color:#231F20;stop-opacity:0.5"/>
  </linearGradient>
  <path fill="url(#SVGID_1_)" d="M16.348,213.796v-10.032h2.378l6.972-23.137h-3.216l0-8.268c0,0-13.33,0.004-13.371,0.004&#xD;&#xA;&#x9;&#x9;c-0.071,0.021-0.164,0.085-0.206,0.291l-0.001,11.179H0v-46.562h8.903v9.473h0.078l-0.062,1.387&#xD;&#xA;&#x9;&#x9;c0.014,0.03,0.175,0.084,0.469,0.084h10.936c1.304-0.66,2.687-0.993,4.117-0.993h1.775v-8.202h-3.734v-13.135h3.734v-2.9h-2.018&#xD;&#xA;&#x9;&#x9;v-2.1h-1.716v-7.802h3.734V23.803h-3.712v-7.801h1.694v-2.538h3.779L34.51,0h45.085l6.533,13.465l3.779-0.001v2.538h1.717v7.801&#xD;&#xA;&#x9;&#x9;H87.89v89.281h3.734v7.802h-1.631v2.1H87.89v2.9h3.734v13.135H87.89v8.202h1.775c5.786,0,10.494,5.578,10.494,12.435&#xD;&#xA;&#x9;&#x9;c0,6.054-3.65,11.132-8.535,12.22v8.751h-3.18l7.4,23.137h1.914v10.032H16.348z M86.724,203.764l-4.432-11.402H67.084v11.402&#xD;&#xA;&#x9;&#x9;H86.724z M47.552,203.764v-11.402h-15.27l-4.432,11.402H47.552z"/>
</svg>