<svg version="1.2" baseProfile="tiny" id="EdgeSVG_KWqp7" x="0px" y="0px" width="127.641px" height="240px" viewBox="0 0 127.641 240" xmlns:xlink="http://www.w3.org/1999/xlink" xmlns="http://www.w3.org/2000/svg">
  <linearGradient id="SVGID_3_" gradientUnits="userSpaceOnUse" x1="63.6294" y1="239.127" x2="63.6294" y2="184.5898">
    <stop offset="0" style="stop-color:#FFFFFF;stop-opacity:0.2"/>
    <stop offset="0.8037" style="stop-color:#000000;stop-opacity:0.15"/>
  </linearGradient>
  <polygon fill="url(#SVGID_3_)" points="125.385,184.589 62.707,184.589 1.873,184.589 62.093,239.127 65.211,239.086 &#x9;"/>
  <linearGradient id="SVGID_4_" gradientUnits="userSpaceOnUse" x1="0.8711" y1="97.8721" x2="126.3867" y2="97.8721">
    <stop offset="0" style="stop-color:#000000;stop-opacity:0.05"/>
    <stop offset="0.1779" style="stop-color:#FFFFFF;stop-opacity:0.6"/>
    <stop offset="0.2309" style="stop-color:#FCFCFC;stop-opacity:0.5166"/>
    <stop offset="0.2773" style="stop-color:#F1F1F1;stop-opacity:0.4435"/>
    <stop offset="0.3213" style="stop-color:#DFDFDF;stop-opacity:0.3741"/>
    <stop offset="0.3639" style="stop-color:#C5C5C5;stop-opacity:0.3071"/>
    <stop offset="0.4054" style="stop-color:#A5A5A5;stop-opacity:0.2418"/>
    <stop offset="0.4461" style="stop-color:#7D7D7D;stop-opacity:0.1777"/>
    <stop offset="0.4862" style="stop-color:#4D4D4D;stop-opacity:0.1146"/>
    <stop offset="0.5247" style="stop-color:#171717;stop-opacity:0.0539"/>
    <stop offset="0.5399" style="stop-color:#000000;stop-opacity:0.03"/>
    <stop offset="0.6933" style="stop-color:#000000;stop-opacity:0.05"/>
    <stop offset="0.9509" style="stop-color:#0A0A0A;stop-opacity:0.4"/>
    <stop offset="0.9626" style="stop-color:#060606;stop-opacity:0.2915"/>
    <stop offset="0.9939" style="stop-color:#000000;stop-opacity:0"/>
  </linearGradient>
  <rect x="0.871" y="12.365" fill="url(#SVGID_4_)" width="125.516" height="171.014"/>
  <linearGradient id="SVGID_5_" gradientUnits="userSpaceOnUse" x1="39.8633" y1="12.3608" x2="39.8633" y2="1.4712">
    <stop offset="0" style="stop-color:#FFFFFF;stop-opacity:0.2"/>
    <stop offset="1" style="stop-color:#E6E7E8;stop-opacity:0.3"/>
  </linearGradient>
  <path fill="url(#SVGID_5_)" d="M22.017,12.361c0,0,2.722-10.89,14.228-10.89c8.189,0,21.465,0.004,21.465,0.004&#xD;&#xA;&#x9;&#x9;s-3.932,4.3-3.932,10.886H22.017"/>
  <linearGradient id="SVGID_6_" gradientUnits="userSpaceOnUse" x1="63.6294" y1="13.8774" x2="63.6294" y2="0.8711">
    <stop offset="0" style="stop-color:#FFFFFF;stop-opacity:0"/>
    <stop offset="0.0505" style="stop-color:#FDFDFD;stop-opacity:0.1266"/>
    <stop offset="0.0726" style="stop-color:#F6F6F6;stop-opacity:0.182"/>
    <stop offset="0.0891" style="stop-color:#E9E9E9;stop-opacity:0.2236"/>
    <stop offset="0.1029" style="stop-color:#D7D7D7;stop-opacity:0.2582"/>
    <stop offset="0.115" style="stop-color:#C0C0C0;stop-opacity:0.2885"/>
    <stop offset="0.1259" style="stop-color:#A3A3A3;stop-opacity:0.3158"/>
    <stop offset="0.1359" style="stop-color:#818181;stop-opacity:0.3408"/>
    <stop offset="0.1452" style="stop-color:#595959;stop-opacity:0.3641"/>
    <stop offset="0.1536" style="stop-color:#2E2E2E;stop-opacity:0.3851"/>
    <stop offset="0.1595" style="stop-color:#0A0A0A;stop-opacity:0.4"/>
    <stop offset="0.2699" style="stop-color:#000000;stop-opacity:0.2476"/>
    <stop offset="0.2866" style="stop-color:#29292A;stop-opacity:0.2538"/>
    <stop offset="0.3646" style="stop-color:#67686B;stop-opacity:0.2824"/>
    <stop offset="0.4449" style="stop-color:#8D8F91;stop-opacity:0.3119"/>
    <stop offset="0.526" style="stop-color:#ADAFB2;stop-opacity:0.3417"/>
    <stop offset="0.608" style="stop-color:#C9CBCD;stop-opacity:0.3718"/>
    <stop offset="0.691" style="stop-color:#DFE0E2;stop-opacity:0.4023"/>
    <stop offset="0.7758" style="stop-color:#EFF0F0;stop-opacity:0.4334"/>
    <stop offset="0.8631" style="stop-color:#FAFAFA;stop-opacity:0.4655"/>
    <stop offset="0.9571" style="stop-color:#FFFFFF;stop-opacity:0.5"/>
  </linearGradient>
  <path fill="url(#SVGID_6_)" d="M0.871,13.877c0-8.647,12.319-13.006,19.638-13.006h86.24c7.318,0,19.638,4.359,19.638,13.006H0.871&#xD;&#xA;&#x9;&#x9;z"/>
  <linearGradient id="SVGID_7_" gradientUnits="userSpaceOnUse" x1="2.6953" y1="183.5752" x2="124.4834" y2="183.5752">
    <stop offset="0" style="stop-color:#0A0A0A;stop-opacity:0"/>
    <stop offset="0.5153" style="stop-color:#FFFFFF;stop-opacity:0.5"/>
    <stop offset="0.5619" style="stop-color:#F9F9F9;stop-opacity:0.4507"/>
    <stop offset="0.6249" style="stop-color:#E8E8E8;stop-opacity:0.384"/>
    <stop offset="0.6973" style="stop-color:#CBCBCB;stop-opacity:0.3074"/>
    <stop offset="0.7768" style="stop-color:#A4A4A4;stop-opacity:0.2233"/>
    <stop offset="0.8619" style="stop-color:#717171;stop-opacity:0.1332"/>
    <stop offset="0.9505" style="stop-color:#343434;stop-opacity:0.0394"/>
    <stop offset="0.9877" style="stop-color:#181818;stop-opacity:0"/>
  </linearGradient>
  <rect x="2.695" y="182.96" fill="url(#SVGID_7_)" width="121.788" height="1.23"/>
  <linearGradient id="SVGID_8_" gradientUnits="userSpaceOnUse" x1="1.0435" y1="12.665" x2="126.3867" y2="12.665">
    <stop offset="0" style="stop-color:#FFFFFF;stop-opacity:0.05"/>
    <stop offset="0.0642" style="stop-color:#FFFFFF;stop-opacity:0.1136"/>
    <stop offset="0.454" style="stop-color:#FFFFFF;stop-opacity:0.5"/>
    <stop offset="0.9228" style="stop-color:#FFFFFF;stop-opacity:0.1136"/>
    <stop offset="1" style="stop-color:#FFFFFF;stop-opacity:0.05"/>
  </linearGradient>
  <polygon fill="url(#SVGID_8_)" points="126.387,12.97 1.043,12.964 1.043,12.359 126.387,12.365 &#x9;"/>
  <linearGradient id="SVGID_9_" gradientUnits="userSpaceOnUse" x1="31.0605" y1="1.4717" x2="31.0605" y2="238.3833">
    <stop offset="0" style="stop-color:#FFFFFF;stop-opacity:0"/>
    <stop offset="0.0875" style="stop-color:#F6F6F6;stop-opacity:0.0087"/>
    <stop offset="0.2296" style="stop-color:#DEDEDE;stop-opacity:0.023"/>
    <stop offset="0.4085" style="stop-color:#B7B7B7;stop-opacity:0.0409"/>
    <stop offset="0.6173" style="stop-color:#808080;stop-opacity:0.0617"/>
    <stop offset="0.8484" style="stop-color:#3B3B3B;stop-opacity:0.0848"/>
    <stop offset="1" style="stop-color:#0A0A0A;stop-opacity:0.1"/>
  </linearGradient>
  <path fill="url(#SVGID_9_)" d="M61.25,238.383c0,0-38.648-50.438-38.56-55.199c0.197-10.606,0-158.116,0-168.178&#xD;&#xA;&#x9;&#x9;S34.511,1.472,34.511,1.472s-5.495,0-16.773,0c-13.523,0-16.867,10.894-16.867,10.894v171.619&#xD;&#xA;&#x9;&#x9;C0.871,183.984,41.244,220.145,61.25,238.383z"/>
  <linearGradient id="SVGID_10_" gradientUnits="userSpaceOnUse" x1="0.8711" y1="211.5596" x2="126.0996" y2="211.5596">
    <stop offset="0" style="stop-color:#FFFFFF;stop-opacity:0.2"/>
    <stop offset="0.5767" style="stop-color:#000000;stop-opacity:0.3"/>
    <stop offset="1" style="stop-color:#FFFFFF;stop-opacity:0.2"/>
  </linearGradient>
  <polygon fill="url(#SVGID_10_)" points="126.1,183.984 63.629,183.984 0.871,183.984 62.084,239.134 65.219,239.095 &#x9;"/>
  <g>
    <linearGradient id="SVGID_11_" gradientUnits="userSpaceOnUse" x1="89.8027" y1="1.4761" x2="89.8027" y2="1.4717">
      <stop offset="0.0123" style="stop-color:#000000;stop-opacity:0"/>
      <stop offset="0.8604" style="stop-color:#000000;stop-opacity:0.0859"/>
      <stop offset="1" style="stop-color:#000000;stop-opacity:0.1"/>
    </linearGradient>
    <path fill="url(#SVGID_11_)" d="M89.616,1.476c0.127,0,0.248,0,0.374,0C89.75,1.466,89.616,1.476,89.616,1.476z"/>
    <linearGradient id="SVGID_12_" gradientUnits="userSpaceOnUse" x1="94.6201" y1="239.0117" x2="94.6201" y2="1.4766">
      <stop offset="0.0123" style="stop-color:#000000;stop-opacity:0"/>
      <stop offset="0.8604" style="stop-color:#000000;stop-opacity:0.0859"/>
      <stop offset="1" style="stop-color:#000000;stop-opacity:0.1"/>
    </linearGradient>
    <path fill="url(#SVGID_12_)" d="M107.177,1.476c0,0-5.164,0-17.187,0c1.663,0.066,8.463,1.048,11.884,12.485v76.617v55.507v37.294&#xD;&#xA;&#x9;&#x9;&#x9;c3.07,8.428-36.899,55.632-36.899,55.632c21.567-19.733,59.276-61.682,59.276-61.682v-31.244V90.579V13.961&#xD;&#xA;&#x9;&#x9;&#x9;C124.251,13.961,125.413,5.212,107.177,1.476z"/>
  </g>
  <g>
    <linearGradient id="SVGID_13_" gradientUnits="userSpaceOnUse" x1="89.8027" y1="1.4761" x2="89.8027" y2="1.4717">
      <stop offset="0" style="stop-color:#000000;stop-opacity:0.2"/>
      <stop offset="0.0393" style="stop-color:#525355;stop-opacity:0.192"/>
      <stop offset="0.0827" style="stop-color:#747678;stop-opacity:0.1833"/>
      <stop offset="0.1314" style="stop-color:#909295;stop-opacity:0.1734"/>
      <stop offset="0.1844" style="stop-color:#A9ABAE;stop-opacity:0.1627"/>
      <stop offset="0.243" style="stop-color:#C0C1C4;stop-opacity:0.1508"/>
      <stop offset="0.3091" style="stop-color:#D2D3D5;stop-opacity:0.1374"/>
      <stop offset="0.3864" style="stop-color:#E0E1E2;stop-opacity:0.1218"/>
      <stop offset="0.4819" style="stop-color:#EAEBEB;stop-opacity:0.1024"/>
      <stop offset="0.6158" style="stop-color:#EFF0F1;stop-opacity:0.0753"/>
      <stop offset="0.9877" style="stop-color:#F1F2F2;stop-opacity:0"/>
    </linearGradient>
    <path fill="url(#SVGID_13_)" d="M89.616,1.476c0.127,0,0.248,0,0.374,0C89.75,1.466,89.616,1.476,89.616,1.476z"/>
    <linearGradient id="SVGID_14_" gradientUnits="userSpaceOnUse" x1="94.6201" y1="239.0117" x2="94.6201" y2="1.4766">
      <stop offset="0" style="stop-color:#000000;stop-opacity:0.2"/>
      <stop offset="0.0393" style="stop-color:#525355;stop-opacity:0.192"/>
      <stop offset="0.0827" style="stop-color:#747678;stop-opacity:0.1833"/>
      <stop offset="0.1314" style="stop-color:#909295;stop-opacity:0.1734"/>
      <stop offset="0.1844" style="stop-color:#A9ABAE;stop-opacity:0.1627"/>
      <stop offset="0.243" style="stop-color:#C0C1C4;stop-opacity:0.1508"/>
      <stop offset="0.3091" style="stop-color:#D2D3D5;stop-opacity:0.1374"/>
      <stop offset="0.3864" style="stop-color:#E0E1E2;stop-opacity:0.1218"/>
      <stop offset="0.4819" style="stop-color:#EAEBEB;stop-opacity:0.1024"/>
      <stop offset="0.6158" style="stop-color:#EFF0F1;stop-opacity:0.0753"/>
      <stop offset="0.9877" style="stop-color:#F1F2F2;stop-opacity:0"/>
    </linearGradient>
    <path fill="url(#SVGID_14_)" d="M107.177,1.476c0,0-5.164,0-17.187,0c1.663,0.066,8.463,1.048,11.884,12.485v76.617v55.507v37.294&#xD;&#xA;&#x9;&#x9;&#x9;c0,13.85-36.899,55.632-36.899,55.632c21.503-19.52,59.276-55.632,59.276-55.632v-37.294V90.579V13.961&#xD;&#xA;&#x9;&#x9;&#x9;C124.251,13.961,125.413,5.212,107.177,1.476z"/>
  </g>
  <linearGradient id="SVGID_15_" gradientUnits="userSpaceOnUse" x1="63.4849" y1="183.9844" x2="63.4849" y2="239.1284">
    <stop offset="0.135" style="stop-color:#0A0A0A;stop-opacity:0.4"/>
    <stop offset="0.9571" style="stop-color:#FFFFFF;stop-opacity:0.5"/>
  </linearGradient>
  <polygon fill="url(#SVGID_15_)" points="126.1,183.984 0.871,183.984 62.093,239.128 65.21,239.086 &#x9;"/>
  <linearGradient id="SVGID_16_" gradientUnits="userSpaceOnUse" x1="44.1948" y1="237.8564" x2="44.1948" y2="184.5898">
    <stop offset="0" style="stop-color:#FFFFFF;stop-opacity:0.2"/>
    <stop offset="0.0399" style="stop-color:#FAFBFB;stop-opacity:0.194"/>
    <stop offset="0.192" style="stop-color:#EFEFF0;stop-opacity:0.1712"/>
    <stop offset="0.4058" style="stop-color:#E8E9EA;stop-opacity:0.1391"/>
    <stop offset="1" style="stop-color:#E6E7E8;stop-opacity:0.05"/>
  </linearGradient>
  <path fill="url(#SVGID_16_)" d="M23.415,184.589c0,0,4.63,12.681,38.931,53.267l2.629-0.055c0,0-13.435-48.368-13.562-53.212&#xD;&#xA;&#x9;&#x9;H23.415"/>
  <linearGradient id="SVGID_17_" gradientUnits="userSpaceOnUse" x1="58.1938" y1="238.3828" x2="58.1938" y2="184.5898">
    <stop offset="0" style="stop-color:#000000;stop-opacity:0.05"/>
    <stop offset="1" style="stop-color:#000000;stop-opacity:0.05"/>
  </linearGradient>
  <polygon fill="url(#SVGID_17_)" points="51.413,184.589 64.975,238.383 64.975,184.589 &#x9;"/>
</svg>