<svg version="1.2" baseProfile="tiny" viewBox="0 0 32.0 32.0" xmlns:xlink="http://www.w3.org/1999/xlink" xmlns="http://www.w3.org/2000/svg">
<path style="fill:#ffffff;" d="M16 9C17.3807 9 18.5 7.88071 18.5 6.5C18.5 5.11929 17.3807 4 16 4C14.6193 4 13.5 5.11929 13.5 6.5C13.5 7.88071 14.6193 9 16 9ZM18.5 11H11.5V12.5L13.2574 12.6386L13.5 13V25.5L13.25 25.75L12.625 25.875L11.5 26V27.5H20.5V26L19.375 25.875L18.75 25.75L18.5 25.5V11ZM1.62701 16C1.62701 23.925 8.07501 30.373 16 30.373C23.925 30.373 30.373 23.925 30.373 16C30.373 8.075 23.925 1.627 16 1.627C8.07501 1.627 1.62701 8.075 1.62701 16Z"/>
</svg>