<svg version="1.2" baseProfile="tiny" viewBox="0 0 99.16 212.796" xmlns:xlink="http://www.w3.org/1999/xlink" xmlns="http://www.w3.org/2000/svg">
<path style="fill:#ffffff;" d="M85.5275,178.289L89.2242,178.289L89.2242,173.5096L85.5275,173.5096L85.5275,172.9797L89.2242,172.9797L89.2242,169.7793C90.8365,169.6814,92.3368,169.0558,93.612,168.045C94.444,167.3853,95.1787,166.5618,95.7876,165.6106C96.2863,164.8318,96.6998,163.9657,97.0102,163.0379C97.2303,162.3846,97.3999,161.6994,97.512,160.9887C97.6171,160.3163,97.6736,159.6204,97.6736,158.9097C97.6736,157.4329,97.4326,156.022,96.9944,154.7389C96.7127,153.9068,96.3498,153.1301,95.9155,152.4194C95.2799,151.3767,94.4975,150.4787,93.6031,149.7701C93.1469,149.4083,92.6611,149.0955,92.1524,148.8402C91.1092,148.3146,89.9669,148.0273,88.769,148.0273L85.5275,148.0273L85.5275,136.8768L89.2242,136.8768L89.2242,132.0974L85.5275,132.0974L85.5275,131.5675L89.2242,131.5675L89.2242,126.7881L85.5275,126.7881L85.5275,120.9171L87.6108,120.9171L87.6108,118.8274L89.2252,118.8274L89.2252,114.048L85.5275,114.048L85.5275,22.1989L89.2242,22.1989L89.2242,17.4195L87.5246,17.4195L87.5246,14.8936L84.3376,14.8957L77.8704,1.4938L35.0957,1.4938L28.6285,14.8936L25.4415,14.8936L25.4415,17.4195L23.7647,17.4195L23.7647,22.1989L27.4396,22.1989L27.4396,114.048L23.7429,114.048L23.7429,118.8274L25.4415,118.8274L25.4415,120.9171L27.4396,120.9171L27.4396,126.7902L23.7429,126.7902L23.7429,131.5696L27.4396,131.5696L27.4396,132.0995L23.7429,132.0995L23.7429,136.8768L27.4396,136.8768L27.4396,148.0273L24.197,148.0273C22.8742,148.0273,21.6189,148.3827,20.4904,149.0168L9.2953,149.0168C7.4598,149.0168,7.3497,147.5506,7.3497,147.5506L7.3289,147.5506L7.3289,138.1238L1.4854,138.1238L1.4854,181.4809L7.3289,181.4809L7.3289,171.6115L7.3497,171.6115C7.3497,171.6115,7.5312,170.2453,8.8847,170.0644C8.8847,170.0666,23.7419,170.0602,23.7419,170.0602L23.7409,172.9797L27.4386,172.9797L27.4386,173.5096L23.7419,173.5096L23.7419,178.2911L27.4386,178.2911L19.6416,204.3055L17.6683,204.3055L17.6683,211.3043L95.2977,211.3043L95.2977,204.3055L93.8034,204.3055L85.5275,178.289M48.5626,204.3033L25.4008,204.3033L30.9429,189.9694L48.5616,189.9694L48.5616,204.3033M64.929,204.3033L64.929,189.9694L82.4882,189.9694L88.0303,204.3033L64.929,204.3033Z"/>
</svg>