<svg version="1.2" baseProfile="tiny" viewBox="0 0 121.103 91.737" xmlns:xlink="http://www.w3.org/1999/xlink" xmlns="http://www.w3.org/2000/svg">
<path style="fill:#ffffff;" d="M91.8845,33.9574C93.5073,38.8552,93.873,44.1246,92.9429,49.1967C92.9066,49.404,92.7976,49.5673,92.6256,49.682C92.4549,49.7967,92.2575,49.8361,92.0564,49.7958L89.3716,49.2389C89.11,49.1848,88.8969,48.994,88.8133,48.7408C88.7721,48.6206,88.7636,48.4986,88.7879,48.3748C89.5775,44.0301,89.2565,39.5075,87.859,35.2912C86.4615,31.0741,84.0164,27.2532,80.7914,24.2424C80.6994,24.1562,80.6328,24.0534,80.594,23.9333C80.5093,23.6782,80.5674,23.3966,80.743,23.1994L82.5644,21.1518C82.7012,20.9968,82.8817,20.9114,83.0888,20.9014C83.2983,20.8913,83.4811,20.9592,83.6325,21.0986C87.4085,24.6149,90.2605,29.0604,91.8845,33.9574M80.9356,68.5239C85.0918,65.4681,88.4391,61.3821,90.6153,56.7072C90.7025,56.5192,90.711,56.3219,90.6359,56.1293C90.5632,55.9348,90.424,55.788,90.2363,55.7055L87.7258,54.6037C87.4836,54.4991,87.1966,54.5312,86.9822,54.6881C86.8805,54.7633,86.8018,54.8569,86.7485,54.9716C84.8823,58.9713,82.0025,62.4756,78.4251,65.1067C74.8453,67.7377,70.6406,69.4403,66.2651,70.0284C66.1416,70.0458,66.0266,70.0917,65.9248,70.166C65.7105,70.3247,65.593,70.588,65.6233,70.8531L65.9236,73.5777C65.9454,73.7822,66.0447,73.9584,66.207,74.0859C66.3705,74.2116,66.5594,74.2648,66.7665,74.2363C71.8771,73.5556,76.7769,71.5796,80.9356,68.5239M62.5872,12.7019C57.427,12.7047,52.3104,14.022,47.7897,16.5062C47.6056,16.6062,47.4857,16.7567,47.43,16.9603C47.3755,17.1594,47.4009,17.3576,47.5014,17.5364L48.876,19.9088C49.0104,20.1381,49.2586,20.2831,49.5275,20.2831C49.6522,20.2831,49.7709,20.2519,49.8811,20.1913C53.7528,18.0722,58.1476,16.9484,62.5897,16.9447C67.0305,16.9383,71.4302,18.052,75.3043,20.1647C75.4145,20.2262,75.5344,20.2537,75.6591,20.2537C75.9267,20.2537,76.1762,20.1106,76.3082,19.8803L77.6755,17.5062C77.7784,17.3273,77.8038,17.1282,77.7469,16.9282C77.6912,16.7282,77.5689,16.575,77.386,16.475C72.8628,14.0,67.745,12.6946,62.5872,12.7019M59.556,70.0834C59.4543,70.0091,59.3405,69.9623,59.2157,69.9449C54.8403,69.3568,50.6356,67.6551,47.0558,65.0241C43.4784,62.3931,40.5986,58.8878,38.7299,54.889C38.7203,54.8661,38.6379,54.6697,38.4696,54.589L37.5989,54.589L35.2434,55.622C35.0557,55.7055,34.9176,55.8513,34.845,56.0458C34.7711,56.2394,34.7796,56.4357,34.8656,56.6237C37.0406,61.2987,40.3866,65.3846,44.5465,68.4413C48.7028,71.4971,53.6026,73.4731,58.7156,74.1528C58.9227,74.1813,59.1116,74.129,59.2751,74.0033C59.4386,73.8749,59.5354,73.6988,59.5585,73.4951L59.8588,70.7696C59.8866,70.5036,59.7716,70.2412,59.556,70.0834M38.2673,32.8428C39.7121,29.598,41.7963,26.6588,44.3855,24.2433C44.4775,24.1571,44.5441,24.0544,44.5829,23.9342C44.6664,23.6792,44.6083,23.3984,44.4327,23.2003L42.6125,21.1527C42.4745,20.9977,42.2928,20.9124,42.0857,20.9023C41.8786,20.8922,41.6958,20.9601,41.5432,21.1004C38.0566,24.3461,35.3584,28.3862,33.6884,32.8418L38.2673,32.8418L38.2673,32.8418Z"/>
</svg>