<svg version="1.2" baseProfile="tiny" viewBox="0 0 121.103 91.737" xmlns:xlink="http://www.w3.org/1999/xlink" xmlns="http://www.w3.org/2000/svg">
<path style="fill:#ffffff;" d="M109.4468,0.9999L106.1226,3.9704L76.881,3.9704L76.881,3.9704C72.4705,2.365,67.7099,1.4916,62.7435,1.488C47.0073,1.4724,33.6339,9.7938,26.4889,22.1352C24.4785,25.524,22.9551,29.1623,21.9996,32.8464L15.8972,32.8308L12.0667,29.8072L1.0003,29.8072L1.0003,49.9343L1.0003,57.4833L1.0003,57.4833L12.0485,57.4833L15.8899,54.5367L15.8984,54.5312L22.7989,54.5899C22.8049,54.611,23.6563,57.3531,24.1927,58.6566C26.6911,64.9076,30.7384,70.6228,36.2594,75.1711C35.9422,74.9629,35.7678,74.8409,35.7678,74.8409C35.7678,74.8409,35.775,74.8473,35.7762,74.8491C35.775,74.8482,35.8138,90.738,35.8138,90.738L89.3643,90.738L89.288,74.9748C89.288,74.9748,93.5254,70.9164,95.388,68.4973C99.5491,63.0958,102.1637,56.9824,103.3045,50.6939C103.7986,48.139,104.0626,45.5016,104.0626,42.8027C104.0626,36.4067,102.6069,30.3503,100.0117,24.9451C100.0238,24.9681,100.0347,24.991,100.0456,25.0148L106.1226,25.0148L106.1335,25.0148L109.4444,27.8642L109.4493,27.8642L120.1039,27.8642L120.1039,0.9999L109.4468,0.9999L109.4468,0.9999Z"/>
</svg>