<svg width="32" height="32" viewBox="0 0 32 32" fill="none" xmlns="http://www.w3.org/2000/svg">
<path fill-rule="evenodd" clip-rule="evenodd" d="M16 9C17.3807 9 18.5 7.88071 18.5 6.5C18.5 5.11929 17.3807 4 16 4C14.6193 4 13.5 5.11929 13.5 6.5C13.5 7.88071 14.6193 9 16 9ZM18.5 11H11.5V12.5L13.2574 12.6386L13.5 13V25.5L13.25 25.75L12.625 25.875L11.5 26V27.5H20.5V26L19.375 25.875L18.75 25.75L18.5 25.5V11ZM1.62701 16C1.62701 23.925 8.07501 30.373 16 30.373C23.925 30.373 30.373 23.925 30.373 16C30.373 8.075 23.925 1.627 16 1.627C8.07501 1.627 1.62701 8.075 1.62701 16Z" fill="#6A6A6A"/>
<path d="M11.5 11H18.5V25.5L18.75 25.75L19.375 25.875L20.5 26V27.5H11.5V26L12.625 25.875L13.25 25.75L13.5 25.5V13L13.2574 12.6386L11.5 12.5V11Z" fill="white"/>
<path d="M18.5 6.5C18.5 7.88071 17.3807 9 16 9C14.6193 9 13.5 7.88071 13.5 6.5C13.5 5.11929 14.6193 4 16 4C17.3807 4 18.5 5.11929 18.5 6.5Z" fill="white"/>
<path d="M16 0C7.178 0 0 7.177 0 16C0 24.823 7.178 32 16 32C24.822 32 32 24.823 32 16C32 7.177 24.822 0 16 0ZM16 30.373C8.075 30.373 1.627 23.925 1.627 16C1.627 8.075 8.075 1.627 16 1.627C23.925 1.627 30.373 8.075 30.373 16C30.373 23.925 23.925 30.373 16 30.373Z" fill="black"/>
</svg>
